<?xml version="1.0" encoding="utf-8"?>
<!-- Generator: Adobe Illustrator 16.0.0, SVG Export Plug-In . SVG Version: 6.00 Build 0)  -->
<!DOCTYPE svg PUBLIC "-//W3C//DTD SVG 1.1//EN" "http://www.w3.org/Graphics/SVG/1.1/DTD/svg11.dtd">
<svg version="1.1" id="Слой_1" xmlns="http://www.w3.org/2000/svg" xmlns:xlink="http://www.w3.org/1999/xlink" x="0px" y="0px"
	 width="551.595px" height="236.14px" viewBox="0 0 551.595 236.14" enable-background="new 0 0 551.595 236.14"
	 xml:space="preserve">
<path fill="#997034" d="M4.213,87.621c-0.145,0-0.288-0.062-0.387-0.183C3.6,87.164-1.688,80.587,0.551,70.414
	c2.846-12.934,16.181-25.23,39.636-36.546c45.948-22.167,81.393-12.42,91.161-8.905c10.395,3.74,18.064,9.163,20.518,14.504
	c0.115,0.251,0.004,0.548-0.246,0.663c-0.251,0.114-0.549,0.005-0.664-0.246c-2.342-5.103-9.799-10.329-19.945-13.98
	c-9.678-3.481-44.791-13.133-90.389,8.865C11.768,48.688,3.436,61.953,1.527,70.628c-2.135,9.704,3.019,16.111,3.07,16.175
	c0.176,0.213,0.145,0.528-0.068,0.704C4.437,87.584,4.324,87.621,4.213,87.621z"/>
<path fill="#997034" d="M82.129,39.464c3.393,0.244,15.672,10.641,13.992,14.822c-1.682,4.186-48.602,86.997-44.268,114.153
	c2.748,1.85,1.57,3.994-1.422,3.539c-2.994-0.455-24.008-13.611-6.668-55.981C61.102,73.626,82.129,39.464,82.129,39.464z"/>
<path fill="#997034" d="M39.188,159.464c-0.204,0-0.395-0.125-0.47-0.327C26.075,124.811,62.092,52.188,62.457,51.458
	c0.123-0.247,0.424-0.346,0.67-0.224c0.248,0.124,0.348,0.424,0.225,0.671c-0.363,0.726-36.189,72.964-23.693,106.886
	c0.095,0.259-0.037,0.547-0.297,0.642C39.305,159.455,39.246,159.464,39.188,159.464z"/>
<path fill="#997034" d="M24.398,69.317c-5.813-2.74,16.703-23.383,49.149-37.375c26.444-11.404,62.956-14.301,77.862,7.732
	c-9.498,26.367-60.305,41.91-70.614,44.645c-10.31,2.736-9.974,19.178-5.537,19.043c4.437-0.129,54.982-12.584,77.439-36.236
	c22.457-23.656,4.277-56.178-16.942-63.686c-21.218-7.51-55.919-2.643-83.104,13.797C25.467,33.681,10.91,59.675,20.104,74.04
	S35.354,74.476,24.398,69.317z"/>
<path fill="#997034" d="M100.797,128.626c0,0,2.771-13.444-12.268-12.245c-15.037,1.199-82.371,17.04-84.131,44.092
	c-1.758,27.053,9.199,32.211,19.398,39.342c10.201,7.127,54.691,3.672,87.649-23.713c32.956-27.381,39.407-62.926,5.968-88.764
	c-25.57,11.973-25.57,11.973-25.57,11.973s14.832-7.537,26.584,7.75c11.75,15.287-4.883,54.004-58.998,71.102
	c-42.048,9.67-46.808-2.484-46.808-2.484s-0.54-20.889,43.374-37.711C99.907,121.149,100.797,128.626,100.797,128.626z"/>
<path fill="#997034" d="M197.791,154.429c3.137-18.279,23.631-59.942,24.437-60.946c6.192-7.723-4.067-14.838-8.518-17.256
	c-2.961-1.611-7.509,6.736-13.85,17.479c-8.362,14.045-23.587,42.825-39.859,66.932c3.831-36.455,25.524-66.601,29.627-69.081
	c6.157-3.721,6.657,11.806,6.657,11.806c14.414-11.531,2.033-23.735-5.784-28.062c-7.817-4.328-30.817,3.047-43.641,43.482
	c-12.823,40.436,2.009,53.883,8.564,53.754c6.557-0.129,18.623-26.287,27.178-39.002c1.771-2.631,4.003-6.668,6.429-11.409
	c0,0,0,0,0,0.002c-15.322,43.143-3.131,50.327,1.895,50.334c11.955,0.016,41.801-61.194,41.801-61.194l-7.184,2.213
	C225.543,113.483,207.025,148.472,197.791,154.429z"/>
<path fill="#997034" d="M407.791,154.429c3.137-18.279,23.631-59.942,24.436-60.946c6.193-7.723-4.066-14.838-8.518-17.256
	c-2.961-1.611-7.508,6.736-13.85,17.479c-8.361,14.045-23.586,42.825-39.859,66.932c3.832-36.455,25.525-66.601,29.627-69.081
	c6.158-3.721,6.658,11.806,6.658,11.806c14.414-11.531,2.033-23.735-5.785-28.062c-7.816-4.328-30.816,3.047-43.641,43.482
	c-12.822,40.436,2.01,53.883,8.564,53.754c6.557-0.129,18.623-26.287,27.178-39.002c1.771-2.631,4.004-6.668,6.43-11.409
	c0,0,0,0,0,0.002c-15.322,43.143-3.131,50.327,1.895,50.334c11.955,0.016,41.801-61.194,41.801-61.194l-7.184,2.213
	C435.543,113.483,417.025,148.472,407.791,154.429z"/>
<path fill="#997034" d="M264.649,148.667c-0.016,0-0.031-0.001-0.047-0.002c-0.274-0.025-0.478-0.27-0.452-0.545
	c4.37-46.866,45.885-132.002,46.305-132.856c0.121-0.248,0.424-0.35,0.668-0.229c0.248,0.121,0.352,0.421,0.23,0.669
	c-0.418,0.853-41.854,85.825-46.207,132.51C265.123,148.473,264.904,148.667,264.649,148.667z"/>
<path fill="#997034" d="M192.965,153.228c0.266,1.088,5.813,5.52,21.308-12.867c15.496-18.385,27.12-45.561,29.446-59.168
	c2.326-13.609-2.282-17.682-8.146-18.982c-5.862-1.299-12.181-0.969-13.818,4.305c0,0-1.612,13.84,15.848,18.225
	c17.459,4.383,15.542,2.84,12.807,7.285c-2.734,4.447-30.281,62.311-23.398,72.418c6.884,10.109,17.156,8.443,17.396,4.627
	s13.846-13.576,33.501-44.406c8.366-12.004,53.22-121.028,53.22-121.028s-35.064,86.637-66.049,127.477
	c-18.088,23.842-19.447,20.648-19.447,20.648s10.503-24.842,17.707-40.258c7.204-15.418,10.373-20.525,7.649-24.871
	c-2.726-4.346-9.798-9.85-15.145-9.201c-5.346,0.648-19.065,1.656-24.479-1.336s-6.062-8.338-1.553-9.725
	c4.508-1.389,15.78-0.979,7.133,21.814c-8.648,22.793-32.288,61.946-38.134,63.495S192.223,150.185,192.965,153.228z"/>
<path fill="#997034" d="M443.871,141.311c-0.029,0-0.061-0.003-0.09-0.008c-0.273-0.05-0.453-0.311-0.402-0.582
	c5.916-32.229,60.551-119.788,61.102-120.668c0.146-0.234,0.455-0.304,0.689-0.159c0.232,0.146,0.305,0.455,0.158,0.689
	c-0.551,0.879-55.084,88.277-60.965,120.318C444.318,141.142,444.107,141.311,443.871,141.311z"/>
<path fill="#997034" d="M327.066,2.245c4.266-0.541,16.6,9.188,9.326,19.928c-5.307,7.838-49.789,111.176-53.914,121.379
	c34.967-49.206,46.248-65.508,51.729-65.948c5.482-0.441,21.51,10.014,12.375,21.904c-9.133,11.887-18.145,41.821-21.873,54.305
	c30.635-42.639,46.684-62.43,46.684-62.43s-14.404,26.146-22.832,38.657c-8.428,12.506-24.236,43.201-30.623,41.883
	c-6.385-1.32-19.6-16.234-8.039-44.65c11.563-28.417,19.822-43.516,19.822-43.516s-18.859,24.854-30.951,43.821
	c-12.094,18.967-23.823,48.758-32.958,43.92c-9.135-4.84,4.326-48.491,16.194-74.542C304.885,46.739,327.066,2.245,327.066,2.245z"
	/>
<path fill="#997034" d="M547.455,41.056c-0.184,0-0.359-0.102-0.447-0.277c-6.561-13.145-34.559-9.918-70-5.833
	c-11.408,1.314-23.203,2.674-35.73,3.704c-22.074,1.814-35.582-0.903-40.143-8.075c-3.574-5.618-0.146-11.748,0.002-12.005
	c0.137-0.24,0.443-0.322,0.682-0.186c0.24,0.137,0.322,0.442,0.188,0.682c-0.033,0.058-3.275,5.877-0.023,10.98
	c2.994,4.694,12.219,9.826,39.213,7.606c12.51-1.028,24.299-2.386,35.699-3.7c37.232-4.29,64.137-7.39,71.008,6.38
	c0.123,0.247,0.023,0.547-0.223,0.67C547.607,41.04,547.531,41.056,547.455,41.056z"/>
<path fill="#997034" d="M380.793,28.892c0,0,4.848-1.488,4.668,2.869c-0.176,4.359-3.666,9.42,15.369,14.27s52.01-4.254,77.104-9.34
	s57.84-8.887,67.598,1.363c9.762,10.246,5.738,36.209,1.729,34.721c0,0-1.826-2.533-2.703-10.326
	c-0.877-7.791-3.033-15.809-19.08-14.672c-16.049,1.137-33.648,2.178-60.867,7.986s-71.826,15.91-83.34-9.924
	C376.148,33.374,379.736,27.745,380.793,28.892z"/>
<path fill="#997034" d="M511.561,97.687c-4.5-8.5-14.656-12.953-16.537-9.982c-0.658,1.041,1.088,1.355,2.037,4.482
	c1.025,3.379-1.139,19.211-6.578,30.541c-23.291,48.524-35.855,43.764-42.836,40.364c-3.744-1.824-5.311-6.738-5.252-10.404
	c0.334-20.834,16.154-52.249,16.154-52.249s3.471-16.42-10.895-20.768c-15.033,32.318-23.26,57.766-17.26,76.848
	c2.201,7.006,8.031,12.641,19.748,14.57c7.168,1.18,17.938-1.377,26.123-5.764C501.506,151.8,522.203,117.788,511.561,97.687z"/>
<path fill="#997034" d="M484.445,2.267c0,0-17.615,36.174-36.791,77.404l0,0l10.895,20.768v0.002
	c14.088-32.414,32.719-71.74,35.855-76.373C501.678,13.326,488.711,1.726,484.445,2.267z"/>
<g>
	<path fill="#636363" d="M154.766,225.746l2.228,0.557v0.371h-5.197v-2.228c-0.272,0.52-0.619,0.99-1.04,1.411
		c-0.346,0.347-0.785,0.662-1.317,0.946s-1.169,0.427-1.912,0.427c-0.792,0-1.577-0.204-2.357-0.612
		c-0.779-0.408-1.473-1.002-2.079-1.782c-0.606-0.779-1.102-1.731-1.484-2.858c-0.385-1.126-0.576-2.406-0.576-3.842
		s0.191-2.716,0.576-3.843c0.383-1.126,0.896-2.079,1.541-2.858c0.643-0.779,1.373-1.374,2.189-1.782s1.671-0.612,2.563-0.612
		c0.691,0,1.286,0.1,1.781,0.297c0.494,0.198,0.903,0.408,1.225,0.631c0.371,0.273,0.669,0.582,0.892,0.929v-9.281l-2.228-0.557
		v-0.371h5.197V225.746z M148.455,209.782c-0.52,0-1.021,0.143-1.504,0.427c-0.482,0.285-0.916,0.749-1.299,1.393
		c-0.385,0.644-0.693,1.498-0.929,2.562c-0.235,1.064-0.353,2.389-0.353,3.973s0.117,2.908,0.353,3.972
		c0.235,1.064,0.532,1.925,0.892,2.58c0.357,0.656,0.754,1.12,1.188,1.393c0.433,0.272,0.859,0.408,1.281,0.408
		c0.594,0,1.119-0.173,1.577-0.52s0.848-0.73,1.169-1.151c0.371-0.47,0.693-1.026,0.966-1.67v-11.138
		c-0.248-0.42-0.532-0.792-0.854-1.113c-0.271-0.272-0.611-0.525-1.021-0.762C149.513,209.9,149.023,209.782,148.455,209.782z"/>
	<path fill="#636363" d="M170.543,218.135c0,1.584,0.117,2.908,0.354,3.972c0.234,1.064,0.544,1.925,0.928,2.58
		c0.383,0.656,0.816,1.12,1.299,1.393s0.984,0.408,1.504,0.408c0.644,0,1.25-0.124,1.819-0.371s1.077-0.581,1.522-1.003
		c0.445-0.42,0.81-0.928,1.095-1.521c0.284-0.594,0.476-1.237,0.575-1.931h0.557c-0.099,0.792-0.315,1.528-0.649,2.209
		s-0.761,1.269-1.28,1.764s-1.121,0.885-1.801,1.169c-0.682,0.284-1.417,0.427-2.209,0.427c-0.941,0-1.832-0.204-2.673-0.612
		c-0.842-0.408-1.591-1.002-2.246-1.782c-0.656-0.779-1.176-1.731-1.56-2.858c-0.384-1.126-0.575-2.406-0.575-3.842
		c0-1.485,0.186-2.797,0.558-3.936c0.371-1.138,0.859-2.085,1.466-2.84s1.312-1.33,2.116-1.727c0.804-0.396,1.652-0.594,2.543-0.594
		s1.738,0.198,2.543,0.594c0.804,0.396,1.51,0.972,2.115,1.727c0.607,0.755,1.096,1.702,1.467,2.84
		c0.371,1.139,0.557,2.45,0.557,3.936H170.543z M173.885,209.596c-0.371,0-0.742,0.118-1.113,0.353
		c-0.372,0.236-0.719,0.65-1.04,1.244s-0.589,1.392-0.798,2.395c-0.211,1.002-0.341,2.271-0.391,3.805h6.683
		c-0.05-1.534-0.18-2.803-0.39-3.805c-0.211-1.003-0.477-1.801-0.799-2.395c-0.321-0.594-0.668-1.008-1.039-1.244
		C174.627,209.714,174.256,209.596,173.885,209.596z"/>
	<path fill="#636363" d="M197.458,227.23c-0.792,0-1.473-0.093-2.042-0.278s-1.027-0.402-1.373-0.649
		c-0.422-0.272-0.768-0.581-1.039-0.929c-0.1,0.372-0.304,0.719-0.613,1.04s-0.6,0.532-0.872,0.631h-0.558
		c0.025-0.322,0.05-0.655,0.074-1.002c0.025-0.297,0.05-0.612,0.074-0.947c0.025-0.334,0.037-0.674,0.037-1.021
		c0-0.371-0.012-0.742-0.037-1.113c-0.024-0.372-0.049-0.706-0.074-1.003c-0.024-0.346-0.049-0.692-0.074-1.039h0.558
		c0.47,1.781,1.188,3.155,2.153,4.12c0.965,0.966,2.104,1.448,3.415,1.448c1.04,0,1.887-0.321,2.543-0.965
		c0.655-0.644,0.983-1.436,0.983-2.376c0-0.669-0.229-1.25-0.687-1.745s-1.034-0.946-1.726-1.355
		c-0.693-0.408-1.436-0.81-2.229-1.206c-0.792-0.396-1.534-0.841-2.227-1.337c-0.693-0.494-1.27-1.076-1.727-1.744
		c-0.458-0.669-0.688-1.485-0.688-2.45c0-0.544,0.125-1.077,0.372-1.597s0.587-0.978,1.021-1.373
		c0.434-0.396,0.959-0.712,1.578-0.947c0.618-0.234,1.299-0.353,2.041-0.353c0.645,0,1.207,0.1,1.689,0.297
		c0.482,0.198,0.896,0.408,1.244,0.631c0.371,0.273,0.692,0.582,0.965,0.929c0.1-0.371,0.303-0.718,0.613-1.04
		c0.309-0.321,0.6-0.531,0.872-0.631h0.557c-0.05,0.322-0.087,0.656-0.111,1.002c-0.024,0.298-0.044,0.619-0.056,0.966
		c-0.013,0.347-0.019,0.681-0.019,1.002c0,0.371,0.006,0.749,0.019,1.133c0.012,0.384,0.031,0.724,0.056,1.021
		c0.024,0.347,0.062,0.681,0.111,1.002h-0.557c-0.471-1.781-1.163-3.155-2.079-4.12c-0.916-0.966-1.893-1.448-2.933-1.448
		c-0.842,0-1.548,0.278-2.116,0.836c-0.57,0.557-0.854,1.206-0.854,1.948c0,0.619,0.234,1.151,0.705,1.597
		c0.47,0.445,1.052,0.86,1.744,1.244c0.693,0.384,1.454,0.773,2.283,1.169c0.83,0.396,1.59,0.854,2.283,1.374
		c0.693,0.52,1.275,1.139,1.745,1.855c0.47,0.719,0.706,1.584,0.706,2.599c0,0.595-0.143,1.183-0.428,1.764
		c-0.285,0.582-0.681,1.102-1.188,1.56c-0.508,0.458-1.113,0.822-1.819,1.095C199.073,227.094,198.299,227.23,197.458,227.23z"/>
	<path fill="#636363" d="M215.463,225.746v-15.221l-2.227-0.558v-0.371h5.197v16.149l2.227,0.557v0.371h-7.424v-0.371
		L215.463,225.746z M218.619,205.328c0,0.47-0.192,0.896-0.576,1.28s-0.811,0.575-1.28,0.575c-0.471,0-0.897-0.191-1.28-0.575
		c-0.385-0.384-0.576-0.811-0.576-1.28c0-0.471,0.191-0.897,0.576-1.281c0.383-0.384,0.81-0.575,1.28-0.575
		c0.47,0,0.896,0.191,1.28,0.575S218.619,204.857,218.619,205.328z"/>
	<path fill="#636363" d="M237.923,235.434c0.915,0,1.745-0.13,2.487-0.39s1.367-0.612,1.875-1.058
		c0.507-0.445,0.896-0.965,1.169-1.56c0.272-0.594,0.409-1.213,0.409-1.855c0-2.352-1.176-3.527-3.527-3.527h-5.939
		c-1.411,0-2.445-0.284-3.1-0.854c-0.656-0.569-0.984-1.274-0.984-2.116c0-0.569,0.143-1.07,0.427-1.504
		c0.284-0.433,0.601-0.822,0.946-1.169c0.421-0.371,0.892-0.718,1.411-1.04c-0.495-0.321-0.928-0.717-1.3-1.188
		c-0.346-0.421-0.648-0.94-0.909-1.56c-0.26-0.618-0.39-1.373-0.39-2.265c0-0.891,0.167-1.72,0.502-2.486
		c0.334-0.768,0.797-1.436,1.392-2.005c0.594-0.569,1.3-1.015,2.116-1.337c0.816-0.321,1.707-0.482,2.672-0.482
		c0.422,0,0.83,0.037,1.226,0.111s0.755,0.161,1.077,0.26c0.371,0.1,0.717,0.223,1.039,0.371c0.197-0.271,0.433-0.52,0.705-0.742
		c0.248-0.198,0.557-0.371,0.928-0.52c0.372-0.148,0.817-0.223,1.338-0.223c0.84,0,1.503,0.154,1.985,0.464s0.86,0.649,1.132,1.021
		c0.297,0.445,0.495,0.941,0.594,1.485l-2.783,0.557c-0.074-0.495-0.186-0.952-0.334-1.373c-0.125-0.347-0.297-0.669-0.52-0.966
		c-0.224-0.297-0.496-0.445-0.817-0.445c-0.272,0-0.52,0.063-0.743,0.186c-0.223,0.124-0.396,0.248-0.52,0.371
		c-0.173,0.174-0.309,0.359-0.408,0.557c0.94,0.57,1.64,1.3,2.098,2.19c0.458,0.892,0.688,1.894,0.688,3.007
		c0,0.892-0.168,1.721-0.502,2.487c-0.334,0.768-0.798,1.437-1.393,2.005c-0.594,0.57-1.299,1.016-2.115,1.337
		s-1.708,0.482-2.674,0.482c-0.52,0-0.989-0.043-1.41-0.13s-0.792-0.191-1.113-0.315c-0.371-0.124-0.705-0.284-1.002-0.482
		c-0.348,0.223-0.656,0.458-0.929,0.705c-0.247,0.198-0.464,0.434-0.649,0.705c-0.186,0.272-0.279,0.545-0.279,0.817
		c0,0.371,0.174,0.674,0.521,0.909s1.039,0.353,2.079,0.353h5.939c1.484,0,2.691,0.477,3.619,1.43
		c0.929,0.953,1.393,2.221,1.393,3.805c0,0.94-0.18,1.813-0.538,2.617c-0.359,0.804-0.86,1.51-1.504,2.116s-1.423,1.082-2.339,1.43
		c-0.916,0.346-1.93,0.52-3.044,0.52c-1.386,0-2.593-0.155-3.62-0.464c-1.027-0.311-1.874-0.73-2.543-1.263
		c-0.668-0.532-1.169-1.157-1.503-1.875s-0.501-1.497-0.501-2.339c0-0.321,0.037-0.612,0.111-0.872s0.16-0.477,0.26-0.649
		c0.099-0.198,0.223-0.371,0.371-0.52l2.784,1.113c-0.074,0.173-0.136,0.358-0.186,0.557c-0.124,0.371-0.186,0.743-0.186,1.114
		c0,1.312,0.438,2.388,1.317,3.229C235.107,235.013,236.339,235.434,237.923,235.434z M237.18,221.105
		c0.422,0,0.83-0.105,1.226-0.315s0.755-0.551,1.077-1.021c0.32-0.47,0.575-1.07,0.761-1.8c0.186-0.73,0.278-1.603,0.278-2.618
		c0-1.014-0.093-1.887-0.278-2.617c-0.186-0.729-0.44-1.323-0.761-1.781c-0.322-0.458-0.682-0.799-1.077-1.021
		s-0.804-0.334-1.226-0.334c-0.42,0-0.828,0.111-1.225,0.334s-0.755,0.563-1.076,1.021c-0.322,0.458-0.576,1.052-0.762,1.781
		c-0.186,0.73-0.277,1.604-0.277,2.617c0,1.016,0.092,1.888,0.277,2.618c0.186,0.729,0.439,1.33,0.762,1.8
		c0.321,0.471,0.68,0.812,1.076,1.021S236.76,221.105,237.18,221.105z"/>
	<path fill="#636363" d="M257.969,225.746v-15.221l-2.227-0.558v-0.371h5.197v2.228c0.246-0.495,0.581-0.952,1.002-1.373
		c0.346-0.347,0.792-0.669,1.336-0.966c0.545-0.297,1.188-0.445,1.932-0.445c0.742,0,1.429,0.137,2.06,0.408
		c0.632,0.272,1.182,0.649,1.652,1.133c0.47,0.482,0.835,1.064,1.095,1.744c0.26,0.682,0.391,1.442,0.391,2.283v11.138l2.227,0.557
		v0.371h-7.238v-0.371l2.041-0.557v-11.138c0-1.757-0.278-3-0.835-3.73c-0.558-0.73-1.206-1.096-1.949-1.096
		c-0.618,0-1.151,0.174-1.597,0.52c-0.445,0.348-0.829,0.73-1.15,1.151c-0.371,0.495-0.693,1.052-0.965,1.671v12.622l2.041,0.557
		v0.371h-7.238v-0.371L257.969,225.746z"/>
	<path fill="#636363" d="M305.672,209.596c-0.742,0-1.361,0.254-1.855,0.762c-0.496,0.507-0.742,1.182-0.742,2.022
		c0,0.198,0.005,0.371,0.018,0.521c0.013,0.148,0.031,0.284,0.057,0.408c0.023,0.124,0.061,0.247,0.111,0.371l-2.971,0.742
		c-0.05-0.074-0.087-0.173-0.111-0.297c-0.025-0.124-0.043-0.26-0.056-0.408s-0.019-0.347-0.019-0.594
		c0-0.521,0.123-1.021,0.371-1.504s0.613-0.915,1.096-1.3c0.482-0.383,1.063-0.692,1.744-0.928c0.681-0.234,1.467-0.353,2.357-0.353
		c1.782,0,3.187,0.508,4.214,1.522c1.026,1.015,1.54,2.363,1.54,4.046v11.138l2.229,0.557v0.371h-5.197v-2.228
		c-0.273,0.52-0.619,0.99-1.04,1.411c-0.347,0.347-0.786,0.662-1.317,0.946c-0.533,0.284-1.17,0.427-1.912,0.427
		c-1.782,0-3.125-0.421-4.028-1.262c-0.903-0.842-1.354-1.968-1.354-3.379c0-0.692,0.191-1.386,0.575-2.078
		c0.384-0.693,0.965-1.312,1.745-1.856c0.779-0.544,1.775-0.984,2.988-1.318c1.212-0.334,2.66-0.501,4.344-0.501v-2.228
		c0-1.856-0.279-3.155-0.836-3.897C307.064,209.967,306.414,209.596,305.672,209.596z M308.457,217.578
		c-2.154,0-3.744,0.478-4.771,1.43c-1.027,0.953-1.54,2.271-1.54,3.954c0,1.113,0.272,1.979,0.816,2.599
		c0.544,0.618,1.138,0.928,1.782,0.928c0.594,0,1.119-0.173,1.578-0.52c0.457-0.347,0.848-0.73,1.169-1.151
		c0.371-0.47,0.692-1.026,0.966-1.67V217.578z"/>
	<path fill="#636363" d="M330.916,235.434c0.916,0,1.744-0.13,2.487-0.39s1.367-0.612,1.875-1.058
		c0.507-0.445,0.896-0.965,1.169-1.56c0.272-0.594,0.408-1.213,0.408-1.855c0-2.352-1.176-3.527-3.526-3.527h-5.94
		c-1.41,0-2.443-0.284-3.1-0.854s-0.983-1.274-0.983-2.116c0-0.569,0.142-1.07,0.427-1.504c0.284-0.433,0.6-0.822,0.947-1.169
		c0.42-0.371,0.891-0.718,1.41-1.04c-0.495-0.321-0.928-0.717-1.299-1.188c-0.348-0.421-0.65-0.94-0.91-1.56
		c-0.26-0.618-0.39-1.373-0.39-2.265c0-0.891,0.167-1.72,0.501-2.486c0.334-0.768,0.799-1.436,1.393-2.005s1.299-1.015,2.115-1.337
		c0.817-0.321,1.709-0.482,2.674-0.482c0.42,0,0.828,0.037,1.225,0.111s0.755,0.161,1.076,0.26c0.372,0.1,0.719,0.223,1.04,0.371
		c0.198-0.271,0.433-0.52,0.706-0.742c0.246-0.198,0.557-0.371,0.928-0.52s0.816-0.223,1.336-0.223c0.842,0,1.504,0.154,1.986,0.464
		s0.859,0.649,1.133,1.021c0.297,0.445,0.494,0.941,0.594,1.485l-2.785,0.557c-0.074-0.495-0.186-0.952-0.334-1.373
		c-0.123-0.347-0.297-0.669-0.52-0.966s-0.495-0.445-0.816-0.445c-0.272,0-0.52,0.063-0.742,0.186
		c-0.223,0.124-0.396,0.248-0.52,0.371c-0.174,0.174-0.311,0.359-0.408,0.557c0.939,0.57,1.639,1.3,2.097,2.19
		c0.458,0.892,0.687,1.894,0.687,3.007c0,0.892-0.166,1.721-0.501,2.487c-0.334,0.768-0.798,1.437-1.392,2.005
		c-0.594,0.57-1.3,1.016-2.116,1.337c-0.817,0.321-1.708,0.482-2.673,0.482c-0.52,0-0.99-0.043-1.411-0.13s-0.792-0.191-1.114-0.315
		c-0.371-0.124-0.705-0.284-1.002-0.482c-0.347,0.223-0.656,0.458-0.928,0.705c-0.248,0.198-0.464,0.434-0.65,0.705
		c-0.186,0.272-0.277,0.545-0.277,0.817c0,0.371,0.172,0.674,0.52,0.909c0.346,0.235,1.039,0.353,2.078,0.353h5.94
		c1.485,0,2.691,0.477,3.62,1.43c0.928,0.953,1.392,2.221,1.392,3.805c0,0.94-0.18,1.813-0.538,2.617
		c-0.359,0.804-0.86,1.51-1.504,2.116s-1.424,1.082-2.338,1.43c-0.916,0.346-1.932,0.52-3.045,0.52
		c-1.387,0-2.593-0.155-3.619-0.464c-1.027-0.311-1.875-0.73-2.543-1.263s-1.17-1.157-1.504-1.875s-0.501-1.497-0.501-2.339
		c0-0.321,0.037-0.612,0.111-0.872s0.161-0.477,0.26-0.649c0.099-0.198,0.223-0.371,0.371-0.52l2.784,1.113
		c-0.074,0.173-0.137,0.358-0.186,0.557c-0.124,0.371-0.186,0.743-0.186,1.114c0,1.312,0.439,2.388,1.318,3.229
		C328.101,235.013,329.332,235.434,330.916,235.434z M330.174,221.105c0.42,0,0.828-0.105,1.225-0.315s0.755-0.551,1.076-1.021
		c0.322-0.47,0.576-1.07,0.762-1.8c0.186-0.73,0.278-1.603,0.278-2.618c0-1.014-0.093-1.887-0.278-2.617
		c-0.186-0.729-0.439-1.323-0.762-1.781c-0.321-0.458-0.68-0.799-1.076-1.021s-0.805-0.334-1.225-0.334
		c-0.422,0-0.83,0.111-1.225,0.334c-0.396,0.223-0.756,0.563-1.077,1.021c-0.322,0.458-0.575,1.052-0.761,1.781
		c-0.186,0.73-0.279,1.604-0.279,2.617c0,1.016,0.094,1.888,0.279,2.618c0.186,0.729,0.438,1.33,0.761,1.8
		c0.321,0.471,0.681,0.812,1.077,1.021C329.344,221,329.752,221.105,330.174,221.105z"/>
	<path fill="#636363" d="M352.076,218.135c0,1.584,0.117,2.908,0.353,3.972c0.235,1.064,0.544,1.925,0.929,2.58
		c0.383,0.656,0.816,1.12,1.299,1.393s0.984,0.408,1.504,0.408c0.643,0,1.249-0.124,1.818-0.371s1.077-0.581,1.522-1.003
		c0.445-0.42,0.81-0.928,1.095-1.521s0.477-1.237,0.576-1.931h0.557c-0.1,0.792-0.316,1.528-0.65,2.209s-0.76,1.269-1.28,1.764
		c-0.52,0.495-1.12,0.885-1.8,1.169c-0.682,0.284-1.418,0.427-2.209,0.427c-0.941,0-1.832-0.204-2.674-0.612
		s-1.59-1.002-2.246-1.782c-0.656-0.779-1.176-1.731-1.559-2.858c-0.385-1.126-0.576-2.406-0.576-3.842
		c0-1.485,0.186-2.797,0.558-3.936c0.371-1.138,0.859-2.085,1.466-2.84s1.313-1.33,2.117-1.727c0.803-0.396,1.651-0.594,2.543-0.594
		c0.891,0,1.738,0.198,2.543,0.594c0.803,0.396,1.509,0.972,2.115,1.727s1.096,1.702,1.467,2.84c0.371,1.139,0.557,2.45,0.557,3.936
		H352.076z M355.418,209.596c-0.372,0-0.743,0.118-1.114,0.353c-0.372,0.236-0.718,0.65-1.04,1.244
		c-0.321,0.594-0.588,1.392-0.798,2.395c-0.21,1.002-0.341,2.271-0.39,3.805h6.682c-0.049-1.534-0.18-2.803-0.389-3.805
		c-0.211-1.003-0.478-1.801-0.799-2.395c-0.322-0.594-0.668-1.008-1.039-1.244C356.16,209.714,355.789,209.596,355.418,209.596z"/>
	<path fill="#636363" d="M374.536,225.746v-15.221l-2.228-0.558v-0.371h5.197v2.228c0.247-0.495,0.582-0.952,1.002-1.373
		c0.347-0.347,0.793-0.669,1.337-0.966s1.188-0.445,1.931-0.445s1.43,0.137,2.061,0.408c0.631,0.272,1.182,0.649,1.652,1.133
		c0.469,0.482,0.834,1.064,1.094,1.744c0.261,0.682,0.391,1.442,0.391,2.283v11.138l2.227,0.557v0.371h-7.238v-0.371l2.041-0.557
		v-11.138c0-1.757-0.277-3-0.834-3.73c-0.558-0.73-1.207-1.096-1.949-1.096c-0.619,0-1.151,0.174-1.597,0.52
		c-0.446,0.348-0.829,0.73-1.151,1.151c-0.371,0.495-0.693,1.052-0.965,1.671v12.622l2.042,0.557v0.371h-7.239v-0.371
		L374.536,225.746z"/>
	<path fill="#636363" d="M406.463,209.782c-0.471,0-0.935,0.143-1.393,0.427c-0.458,0.285-0.872,0.749-1.244,1.393
		c-0.371,0.644-0.674,1.498-0.909,2.562c-0.235,1.064-0.353,2.389-0.353,3.973s0.117,2.908,0.353,3.972
		c0.235,1.064,0.551,1.925,0.947,2.58c0.396,0.656,0.847,1.12,1.354,1.393c0.507,0.272,1.045,0.408,1.615,0.408
		c0.643,0,1.249-0.124,1.818-0.371s1.077-0.581,1.522-1.003c0.445-0.42,0.811-0.928,1.095-1.521
		c0.285-0.594,0.477-1.237,0.576-1.931h0.557c-0.1,0.792-0.315,1.528-0.649,2.209s-0.762,1.269-1.281,1.764s-1.12,0.885-1.801,1.169
		s-1.417,0.427-2.208,0.427c-0.966,0-1.888-0.204-2.767-0.612c-0.878-0.408-1.651-1.002-2.319-1.782
		c-0.669-0.779-1.194-1.731-1.578-2.858c-0.384-1.126-0.575-2.406-0.575-3.842s0.191-2.716,0.575-3.843
		c0.384-1.126,0.896-2.079,1.541-2.858c0.643-0.779,1.373-1.374,2.189-1.782c0.817-0.408,1.671-0.612,2.562-0.612
		c0.595,0,1.12,0.1,1.578,0.297c0.458,0.198,0.848,0.408,1.169,0.631c0.372,0.273,0.693,0.582,0.966,0.929
		c0.099-0.371,0.303-0.718,0.612-1.04c0.31-0.321,0.6-0.531,0.872-0.631h0.558c-0.05,0.322-0.087,0.656-0.111,1.002
		c-0.025,0.298-0.044,0.619-0.056,0.966c-0.013,0.347-0.019,0.681-0.019,1.002c0,0.371,0.006,0.749,0.019,1.133
		c0.012,0.384,0.03,0.724,0.056,1.021c0.024,0.347,0.062,0.681,0.111,1.002h-0.558c-0.47-1.781-1.157-3.155-2.06-4.12
		C408.324,210.264,407.402,209.782,406.463,209.782z"/>
	<path fill="#636363" d="M428.922,229.829c-0.396,1.163-0.779,2.135-1.15,2.914c-0.371,0.78-0.762,1.411-1.17,1.894
		s-0.829,0.822-1.262,1.021c-0.434,0.197-0.91,0.297-1.43,0.297c-0.148,0-0.284-0.007-0.408-0.019
		c-0.124-0.013-0.248-0.031-0.371-0.056c-0.124-0.025-0.235-0.063-0.334-0.111l-0.557-2.784c0.098,0.049,0.21,0.086,0.334,0.111
		c0.123,0.024,0.247,0.043,0.371,0.056c0.123,0.012,0.26,0.019,0.408,0.019c1.485,0,2.567-0.279,3.248-0.836
		s1.207-1.392,1.578-2.506l1.039-3.155l-6.422-16.148l-2.228-0.558v-0.371h7.425v0.371l-2.042,0.558l4.715,11.842l3.823-11.471
		l-2.413-0.929v-0.371h5.569v0.371l-2.413,0.929L428.922,229.829z"/>
</g>
</svg>
