<?xml version="1.0" encoding="utf-8"?>
<!-- Generator: Adobe Illustrator 16.0.0, SVG Export Plug-In . SVG Version: 6.00 Build 0)  -->
<!DOCTYPE svg PUBLIC "-//W3C//DTD SVG 1.1//EN" "http://www.w3.org/Graphics/SVG/1.1/DTD/svg11.dtd">
<svg version="1.1" id="Слой_1" xmlns="http://www.w3.org/2000/svg" xmlns:xlink="http://www.w3.org/1999/xlink" x="0px" y="0px"
	 width="43.311px" height="53.554px" viewBox="0 0 43.311 53.554" enable-background="new 0 0 43.311 53.554" xml:space="preserve">
<g>
	<path
        style="fill: white"
        d="M42.021,10.399c-1.208-1.531-3.13-2.375-5.414-2.375c-2.571,0-5.414,1.08-7.799,2.961c-0.443,0.35-0.856,0.725-1.25,1.113
		c0.021-0.781-0.013-1.584-0.12-2.406c-0.769-5.867-4.758-10.197-9.049-9.645c-4.294,0.563-7.046,5.68-6.265,11.648
		c0.348,2.652,1.354,4.982,2.745,6.699c-0.209,0.002-0.42,0.045-0.621,0.139c-0.22,0.104-0.397,0.258-0.537,0.438
		C5.879,20.712,0,27.702,0,36.05c0,2.805,0.68,5.447,1.856,7.799c0.028,0.068,0.057,0.135,0.095,0.197
		c2.91,5.637,8.782,9.508,15.553,9.508c5.487,0,10.388-2.543,13.599-6.506l1.568,1.053c0.257,0.174,0.548,0.256,0.836,0.256
		c0.482,0,0.957-0.232,1.246-0.664c0.462-0.688,0.279-1.619-0.408-2.082l-1.56-1.047c1.41-2.523,2.223-5.424,2.223-8.514
		c0-3.746-1.194-7.215-3.208-10.066c2.226-0.279,4.563-1.285,6.574-2.873c2.169-1.711,3.767-3.912,4.499-6.195
		C43.672,14.421,43.369,12.106,42.021,10.399z M18.777,3.022c0.12-0.016,0.239-0.023,0.358-0.023c2.427,0,4.816,3.178,5.327,7.082
		c0.544,4.16-1.141,7.953-3.677,8.285c-2.562,0.332-5.151-2.961-5.688-7.059C14.555,7.149,16.239,3.354,18.777,3.022z
		 M14.104,21.966c0.649,1.844,0.967,3.83,0.896,5.836c-0.245,6.93-4.848,12.678-10.879,13.83C3.4,39.911,3,38.026,3,36.05
		C3,29.226,7.744,23.503,14.104,21.966z M5.629,44.353c6.917-1.801,12.088-8.475,12.368-16.445c0.076-2.164-0.221-4.316-0.855-6.342
		c0.121-0.004,0.24-0.02,0.362-0.02c2.607,0,5.051,0.701,7.167,1.912c0.493,1.959,0.721,3.988,0.648,6.053
		c-0.338,9.59-6.941,17.588-15.443,18.852C8.204,47.323,6.757,45.96,5.629,44.353z M17.504,50.554c-1.049,0-2.069-0.117-3.056-0.33
		c7.847-3.07,13.536-11.17,13.869-20.607c0.039-1.119-0.01-2.229-0.117-3.326c2.356,2.58,3.808,6,3.808,9.76
		C32.008,44.048,25.501,50.554,17.504,50.554z M40.016,15.999c-0.552,1.723-1.794,3.41-3.499,4.756
		c-1.867,1.473-4.033,2.316-5.943,2.316c-0.496,0-1.087-0.061-1.653-0.26c-0.498-0.43-1.013-0.84-1.557-1.211
		c-0.75-1.186-0.46-2.682-0.197-3.502c0.552-1.723,1.794-3.412,3.499-4.758c1.866-1.471,4.031-2.316,5.941-2.316
		c0.952,0,2.256,0.215,3.059,1.232C40.624,13.472,40.297,15.122,40.016,15.999z"/>
	<circle style="fill: white" cx="8.708" cy="30.388" r="1.5"/>
</g>
</svg>
