<?xml version="1.0" encoding="utf-8"?>
<!-- Generator: Adobe Illustrator 16.0.0, SVG Export Plug-In . SVG Version: 6.00 Build 0)  -->
<!DOCTYPE svg PUBLIC "-//W3C//DTD SVG 1.1//EN" "http://www.w3.org/Graphics/SVG/1.1/DTD/svg11.dtd">
<svg version="1.1" id="Слой_1" xmlns="http://www.w3.org/2000/svg" xmlns:xlink="http://www.w3.org/1999/xlink" x="0px" y="0px"
	 width="45.417px" height="44.784px" viewBox="0 0 45.417 44.784" enable-background="new 0 0 45.417 44.784" xml:space="preserve">
<path fill="none" stroke="#ffffff" stroke-width="3" stroke-linecap="round" stroke-linejoin="round" stroke-miterlimit="10" d="
	M37.415,36.685c3.472-3.707,5.603-8.688,5.603-14.166c0-11.447-9.28-20.728-20.729-20.728c-11.446,0-20.727,9.281-20.727,20.728
	s9.28,20.728,20.727,20.728c3.361,0,6.53-0.805,9.338-2.224c3.11,1.573,6.658,2.388,10.389,2.197
	c0.584-0.029,1.158-0.089,1.726-0.165C41.201,41.423,39.04,39.245,37.415,36.685z"/>
<line fill="none" stroke="#ffffff" stroke-width="3" stroke-linecap="round" stroke-linejoin="round" stroke-miterlimit="10" x1="11.673" y1="15.004" x2="32.456" y2="15.004"/>
<line fill="none" stroke="#ffffff" stroke-width="3" stroke-linecap="round" stroke-linejoin="round" stroke-miterlimit="10" x1="11.673" y1="22.665" x2="14.819" y2="22.665"/>
<line fill="none" stroke="#ffffff" stroke-width="3" stroke-linecap="round" stroke-linejoin="round" stroke-miterlimit="10" x1="28.963" y1="30.326" x2="32.109" y2="30.326"/>
<line fill="none" stroke="#ffffff" stroke-width="3" stroke-linecap="round" stroke-linejoin="round" stroke-miterlimit="10" x1="18.947" y1="22.665" x2="32.456" y2="22.665"/>
<line fill="none" stroke="#ffffff" stroke-width="3" stroke-linecap="round" stroke-linejoin="round" stroke-miterlimit="10" x1="11.673" y1="30.326" x2="24.636" y2="30.326"/>
</svg>
