<?xml version="1.0" encoding="utf-8"?>
<!-- Generator: Adobe Illustrator 16.0.0, SVG Export Plug-In . SVG Version: 6.00 Build 0)  -->
<!DOCTYPE svg PUBLIC "-//W3C//DTD SVG 1.1//EN" "http://www.w3.org/Graphics/SVG/1.1/DTD/svg11.dtd">
<svg version="1.1" id="Слой_1" xmlns="http://www.w3.org/2000/svg" xmlns:xlink="http://www.w3.org/1999/xlink" x="0px" y="0px"
	 width="33.334px" height="48.583px" viewBox="0 0 33.334 48.583" enable-background="new 0 0 33.334 48.583" xml:space="preserve">
<path fill-rule="evenodd" clip-rule="evenodd" fill="none" stroke="#ffffff" stroke-width="3" stroke-linecap="round" stroke-linejoin="round" stroke-miterlimit="10" d="
	M31.67,29.439c-0.668-3.379-2.161-6.409-4.195-9.132c-1.982-2.654-4.163-5.163-6.29-7.707c-1.142-1.364-2.065-2.811-2.386-4.599
	C18.418,5.868,19.57,3.92,21.576,3.4c0.311-0.081,0.632-0.123,0.986-0.19c-0.074-0.079-0.108-0.132-0.156-0.162
	c-2.845-1.828-6.457-1.764-9.26,0.132c-4.302,2.91-4.901,8.848-3.082,12.808c0.097,0.209,0.192,0.418,0.348,0.758
	c-2.829-0.792-5.354-0.633-7.577,1.177c0.73,0.365,1.48,0.599,2.058,1.054c1.469,1.158,1.861,3.24,0.917,5.042
	c-0.637,1.217-1.438,2.353-2.212,3.493c-1.841,2.709-2.638,5.638-1.986,8.899c0.986,4.947,3.83,8.33,8.535,10.133
	c0.285,0.109,1.382,0.488,3.051,0.716c-0.102-0.186-0.155-0.301-0.155-0.301s4.792-4.064,4.042-14.917c0,0,8.779,5.083,3.12,14.916
	c0.16-0.035,0.317-0.064,0.48-0.104C28.437,45.023,33.189,37.124,31.67,29.439z"/>
</svg>
