<?xml version="1.0" encoding="utf-8"?>
<!-- Generator: Adobe Illustrator 16.0.0, SVG Export Plug-In . SVG Version: 6.00 Build 0)  -->
<!DOCTYPE svg PUBLIC "-//W3C//DTD SVG 1.1//EN" "http://www.w3.org/Graphics/SVG/1.1/DTD/svg11.dtd">
<svg version="1.1" id="Слой_1" xmlns="http://www.w3.org/2000/svg" xmlns:xlink="http://www.w3.org/1999/xlink" x="0px" y="0px"
	 width="45.083px" height="44.979px" viewBox="0 0 45.083 44.979" enable-background="new 0 0 45.083 44.979" xml:space="preserve">
<g>
	<path fill="none" stroke="#ffffff" stroke-width="3" stroke-linecap="round" stroke-linejoin="round" stroke-miterlimit="10" d="
		M43.675,19.51v6.049c0,0.217-0.072,0.426-0.219,0.627c-0.145,0.201-0.328,0.318-0.545,0.355l-5.041,0.762
		c-0.344,0.98-0.699,1.807-1.063,2.479c0.637,0.908,1.609,2.162,2.916,3.76c0.182,0.219,0.273,0.445,0.273,0.682
		s-0.082,0.445-0.246,0.627c-0.49,0.672-1.391,1.652-2.697,2.941c-1.309,1.291-2.162,1.936-2.561,1.936
		c-0.219,0-0.455-0.082-0.709-0.246l-3.76-2.941c-0.799,0.418-1.625,0.762-2.479,1.035c-0.291,2.469-0.555,4.158-0.791,5.066
		c-0.127,0.51-0.455,0.764-0.98,0.764h-6.049c-0.254,0-0.477-0.078-0.668-0.232s-0.295-0.35-0.313-0.584l-0.762-5.014
		c-0.891-0.291-1.709-0.627-2.453-1.01l-3.842,2.916c-0.182,0.164-0.408,0.246-0.682,0.246c-0.254,0-0.48-0.102-0.682-0.301
		c-2.287-2.07-3.787-3.596-4.494-4.576c-0.127-0.182-0.189-0.391-0.189-0.627c0-0.219,0.07-0.428,0.217-0.627
		c0.273-0.383,0.734-0.984,1.389-1.813c0.654-0.826,1.145-1.465,1.471-1.92c-0.49-0.908-0.863-1.807-1.115-2.697L2.616,26.43
		c-0.236-0.035-0.428-0.15-0.572-0.34c-0.146-0.191-0.219-0.406-0.219-0.641V19.4c0-0.217,0.072-0.426,0.219-0.625
		c0.145-0.201,0.318-0.318,0.518-0.355l5.068-0.764c0.254-0.832,0.607-1.67,1.063-2.506c-0.727-1.035-1.699-2.289-2.916-3.76
		c-0.182-0.217-0.273-0.436-0.273-0.654c0-0.18,0.082-0.389,0.246-0.625C6.22,9.457,7.114,8.48,8.433,7.182s2.176-1.949,2.574-1.949
		c0.236,0,0.473,0.094,0.709,0.273l3.76,2.916c0.799-0.418,1.625-0.764,2.479-1.037c0.291-2.469,0.555-4.158,0.791-5.066
		c0.127-0.508,0.455-0.764,0.98-0.764h6.049c0.254,0,0.477,0.078,0.668,0.232s0.295,0.35,0.313,0.586l0.762,5.012
		c0.891,0.293,1.709,0.627,2.453,1.01l3.869-2.916c0.164-0.162,0.381-0.246,0.654-0.246c0.236,0,0.461,0.094,0.68,0.273
		c2.344,2.162,3.842,3.705,4.496,4.633c0.127,0.145,0.189,0.346,0.189,0.598c0,0.219-0.072,0.428-0.217,0.627
		c-0.273,0.383-0.734,0.986-1.389,1.813s-1.145,1.467-1.473,1.92c0.473,0.908,0.846,1.801,1.117,2.672l4.986,0.762
		c0.236,0.037,0.428,0.15,0.572,0.34C43.603,19.061,43.675,19.273,43.675,19.51z M27.681,27.412
		c1.363-1.363,2.043-3.006,2.043-4.932s-0.68-3.57-2.043-4.932c-1.361-1.361-3.006-2.043-4.932-2.043s-3.568,0.682-4.93,2.043
		c-1.363,1.361-2.043,3.006-2.043,4.932s0.68,3.568,2.043,4.932c1.361,1.361,3.004,2.041,4.93,2.041S26.319,28.773,27.681,27.412z"
		/>
</g>
</svg>
